<?xml version="1.0" encoding="utf-8"?>
<!-- Generator: Adobe Illustrator 24.1.2, SVG Export Plug-In . SVG Version: 6.00 Build 0)  -->
<svg version="1.1" xmlns="http://www.w3.org/2000/svg" xmlns:xlink="http://www.w3.org/1999/xlink" x="0px" y="0px" width="177.4px"
	 height="94.8px" viewBox="0 0 177.4 94.8" enable-background="new 0 0 177.4 94.8" xml:space="preserve">
<g id="BACKGROUND">
</g>
<g id="OBJECT_1_">
	<g>
		<text transform="matrix(1 0 0 1 72.2868 60.9352)"><tspan x="0" y="0" fill="#E09F0D" font-family="'Raleway-Regular'" font-size="27.7682px">DINERO</tspan><tspan x="0" y="24" fill="#190135" font-family="'Raleway-Black'" font-size="27.7682px">RAPIDO</tspan></text>
	</g>
	<g>
		<g>
			<linearGradient id="SVGID_1_" gradientUnits="userSpaceOnUse" x1="-3.9789" y1="14.1443" x2="55.6521" y2="83.742">
				<stop  offset="0" style="stop-color:#E05600"/>
				<stop  offset="0.9667" style="stop-color:#FFFF0F"/>
			</linearGradient>
			<path fill="url(#SVGID_1_)" d="M62.6,70.2C59.3,83.8,47,93.9,32.4,93.9c-17.2,0-31.2-14.3-31.2-31.5v-42c0-2.6,2-4.7,4.5-4.8
				c2.7-0.1,4.9,2.1,4.9,4.7v20.1c0.6-0.5,1.1-1.1,1.7-1.6v-26c0-2.6,2-4.7,4.5-4.8c2.7-0.1,4.9,2,4.9,4.7v20.7
				c0.6-0.2,1.1-0.4,1.7-0.6V5.3c0-2.6,2-4.7,4.5-4.8c2.7-0.1,4.9,2.1,4.9,4.7v26.4c13.8,0.2,25.5,9.5,29.3,22.2
				c0.2,0.6,0.3,1.1,0.3,1.7c0,2.5-1.7,4.9-4.2,5.6c-3,0.9-6.1-0.7-7.1-3.6c-1.5-3.9-3.4-6.7-5.5-8.6c-1-0.9-1.3-2.3-0.7-3.5l2.7-6
				c0.3-0.6-0.1-1.2-0.7-1.3l-4.1-0.4c-0.4,0-0.7,0.5-0.4,0.8l0.3,0.3c0.7,0.6,0.3,1.8-0.7,1.8c-2.6,0.1-6.4,0.2-6.7-0.4
				c-0.3-0.5,0.9-1.3,2-2c0.3-0.2,0.3-0.6,0-0.7c0,0-0.1,0-0.2,0h-3.9c-0.5,0-0.8,0.4-0.7,0.9l1.5,5.8c0.2,0.7,0.8,1.1,1.5,1.1
				c0.7,0,1.3,0,2,0.1c0.4,0.1,0.7,0.1,1.2,0.3c-0.2,0-0.4,0-0.6,0c-0.2,0-0.4,0-0.5,0c-0.9,0.1-1.9,0.3-3,0.7
				c-0.6,0.2-1.1,0.5-1.7,0.9C28.3,50,23.6,56.7,22.6,70c-0.1,2.1,0.9,4,2.7,5.1c4,2.2,10.6,2.6,12.8,2.6c1.1,0,3.2-0.1,5.5-0.4h0
				c1.1-0.2,2.3-0.4,3.5-0.7c0.9-0.2,1.8-0.5,2.6-0.9c0,0,0.1,0,0.1,0c0.1,0,0.2-0.1,0.3-0.1c0,0,0,0,0,0c0.3-0.1,0.5-0.2,0.7-0.4
				c1.8-1,2.8-3,2.7-5c0,0,0,0,0,0c-0.1-1.6,1.1-3,2.7-3.1l3.2-0.3C61.5,66.3,63.1,68.2,62.6,70.2z"/>
			<linearGradient id="SVGID_2_" gradientUnits="userSpaceOnUse" x1="-3.6871" y1="13.8944" x2="55.9436" y2="83.4918">
				<stop  offset="0" style="stop-color:#E05600"/>
				<stop  offset="0.9667" style="stop-color:#FFFF0F"/>
			</linearGradient>
			<path fill="url(#SVGID_2_)" d="M43.8,63.2c-0.5-0.6-1.2-1.1-2-1.4c-0.3-0.1-0.7-0.3-1.2-0.4c-0.4-0.1-0.8-0.2-1.2-0.3v-3.9
				c0.1,0,0.3,0,0.4,0.1c1,0.2,2,0.5,3,1.1l1.1-2.8c-0.7-0.5-1.6-0.8-2.5-1c-0.6-0.2-1.3-0.3-2-0.3v-2.6h-2.8v2.7
				c-0.7,0.1-1.3,0.3-1.9,0.5c-1,0.4-1.8,1-2.3,1.8c-0.5,0.7-0.7,1.6-0.7,2.5c0,1.1,0.3,1.9,0.8,2.5c0.5,0.6,1.2,1.1,2,1.4
				c0.6,0.2,1.3,0.4,2.1,0.6v3.9c-0.5-0.1-1-0.2-1.5-0.4c-0.9-0.3-1.7-0.7-2.4-1.2l-1.2,2.8c0.7,0.5,1.6,1,2.8,1.3
				c0.8,0.2,1.6,0.4,2.4,0.4v2.6h2.8v-2.6c0.8-0.1,1.5-0.3,2.2-0.6c0.2-0.1,0.4-0.2,0.6-0.3c0.7-0.4,1.2-0.9,1.6-1.5
				c0.5-0.7,0.8-1.6,0.8-2.5C44.6,64.6,44.3,63.8,43.8,63.2z M36.6,60.3c-0.1-0.1-0.3-0.1-0.4-0.2c-0.6-0.3-0.8-0.7-0.8-1.2
				c0-0.5,0.2-1,0.7-1.3c0.1-0.1,0.3-0.2,0.5-0.2V60.3z M40.2,67.2c-0.2,0.1-0.5,0.2-0.8,0.3v-3.1c0.5,0.1,0.8,0.3,1.1,0.6
				c0.3,0.2,0.4,0.6,0.4,0.9C41,66.5,40.7,66.9,40.2,67.2z"/>
		</g>
		<g opacity="0.3">
			<path opacity="0.6" d="M36.4,76.5c-4.9-0.8-8.3-5.3-7.8-10.2c1.4-13.8,7.6-19.7,10.2-20.7c-0.2,0-0.4,0-0.6,0
				c-1.1,0-2.3,0.2-3.5,0.7c-0.6,0.2-1.1,0.5-1.7,0.9C28.3,50,23.6,56.7,22.6,70c-0.1,2.1,0.9,4,2.7,5.1c4,2.2,10.6,2.6,12.8,2.6
				c1.6,0,5.5-0.2,9-1.1C43.9,77.2,39.9,77.1,36.4,76.5z"/>
			<path opacity="0.6" d="M34.2,40.7c-0.7-1.7,1-2.9,3.1-3.1c0,0-0.1,0-0.2,0h-3.9c-0.5,0-0.8,0.4-0.7,0.9l1.5,5.8
				c0.2,0.7,0.8,1.1,1.5,1.1c1.1,0,1.8-0.1,3.2,0.3C34.1,44.1,34.9,42.4,34.2,40.7z"/>
		</g>
		<path fill="#E4E4E4" d="M35.3,39"/>
		<path opacity="0.35" d="M43.7,77.2c-10.2,2.1-23.6-1-23.8-5.3c0-15.1,7.6-23.4,12.7-26.6c0,0,0.2-4.1,0-6.9l1.5,5.8
			c0.2,0.7,0.8,1.1,1.5,1.1c0.7,0,1.3,0,2,0.1l0.1,0.3c-0.9,0.1-1.9,0.3-3,0.7c-0.6,0.2-1.1,0.5-1.7,0.9C28.3,50,23.6,56.7,22.6,70
			c-0.1,2.1,0.9,4,2.7,5.1c4,2.2,10.6,2.6,12.8,2.6C39.2,77.6,41.3,77.5,43.7,77.2z"/>
	</g>
</g>
<g id="DESIGN_BY_FREEPIK">
</g>
</svg>
