<?xml version="1.0" encoding="utf-8"?>
<!-- Generator: Adobe Illustrator 24.1.2, SVG Export Plug-In . SVG Version: 6.00 Build 0)  -->
<svg version="1.1" id="Layer_1" xmlns="http://www.w3.org/2000/svg" xmlns:xlink="http://www.w3.org/1999/xlink" x="0px" y="0px"
	 width="43.1px" height="45.4px" viewBox="0 0 43.1 45.4" style="enable-background:new 0 0 43.1 45.4;" xml:space="preserve">
<g>
	<path d="M0.5,23.6c0-0.3,0.1-0.5,0.1-0.8c0.3-1.4,1.2-2.5,2.4-3.2c0.5-0.3,1.1-0.5,1.7-0.7c0.1,0,0.2-0.1,0.2-0.2
		c0.5-1.9,1.2-3.6,2.3-5.2c2.4-3.5,5.5-5.8,9.6-7c1.9-0.5,3.8-0.7,5.7-0.6c4.3,0.3,8,1.9,11.1,5c2.2,2.2,3.7,4.8,4.4,7.8
		c0,0.2,0.2,0.2,0.3,0.2c1.2,0.3,2.3,0.9,3.1,1.9c0.5,0.7,0.8,1.5,0.9,2.3c0,0.1,0,0.2,0,0.2c0,0.3,0,0.6,0,0.9
		c-0.1,0.4-0.1,0.8-0.3,1.2c-0.5,1.4-1.4,2.4-2.8,2.9c-0.6,0.3-1.2,0.4-1.8,0.6c-0.1,0-0.2,0.1-0.2,0.2c-1.9,4.6-5.2,7.9-9.9,9.7
		c-0.6,0.2-0.9,0.5-1.1,1.1c-0.2,0.6-0.7,0.8-1.3,0.9c-0.5,0-1.1,0-1.6-0.1c-0.5-0.1-0.8-0.4-0.9-0.8c-0.1-0.4-0.1-0.8,0-1.3
		c0.2-0.4,0.4-0.6,0.9-0.8c0.7-0.2,1.4-0.3,2.1-0.2c0.1,0,0.2,0.1,0.3,0.1c0.3,0,0.5,0.1,0.8,0c2.5-0.8,4.6-2.2,6.3-4.1
		c1.7-1.8,2.9-3.8,3.6-6.2c0.5-1.7,0.7-3.5,0.7-5.4c-0.1-2.5-0.8-4.9-2.1-7.1c-1.6-2.7-3.8-4.8-6.7-6.2c-1.5-0.8-3.2-1.2-4.9-1.5
		c-1.4-0.2-2.7-0.2-4.1,0c-2.5,0.3-4.7,1.2-6.8,2.6c-2.1,1.5-3.8,3.3-5,5.6c-1,1.9-1.6,3.9-1.7,6.1c-0.2,2.4,0.2,4.8,1.1,7
		c0,0,0,0.1,0,0.1c-0.8,0.3-1.6,0.3-2.4,0.1c-1.2-0.3-2.3-0.9-3.1-1.9c-0.5-0.7-0.8-1.5-0.9-2.4c0-0.1,0-0.2,0-0.3
		C0.5,24.2,0.5,23.9,0.5,23.6z"/>
	<path d="M21.7,36.1c-1.3,0-2.6-0.2-3.8-0.6c-0.6-0.2-1.2-0.5-1.8-0.8c-1.4-0.7-2.6-1.5-3.8-2.5c-0.8-0.8-1.5-1.7-2.1-2.7
		c-1.2-2.2-1.9-4.5-1.7-7c0.3-4.7,2.4-8.2,6.4-10.7c1.6-1,3.3-1.6,5.1-1.7c4.8-0.4,8.7,1.2,11.8,4.9c1.5,1.9,2.4,4,2.7,6.4
		c0.5,4.3-0.8,8-3.9,11c-2,1.9-4.4,3.1-7.1,3.5C22.9,36.1,22.3,36.1,21.7,36.1z M21.6,12c-6.1,0-10.9,4.8-11.1,10.7
		c-0.2,6.4,4.9,11.4,11.1,11.5c6.1,0,11.3-5,11.1-11.5C32.4,16.8,27.6,12,21.6,12z"/>
	<path d="M28.6,25.7c0,0.9-0.2,1.6-0.5,2.4c-0.9,2.2-2.5,3.5-4.9,3.9c-1.5,0.3-2.9,0.2-4.4-0.2c-2.2-0.7-3.6-2.2-4.2-4.4
		c-0.1-0.5-0.2-1.1-0.3-1.6c0,0,0.1,0,0.1,0c0.3,0.2,0.5,0.4,0.8,0.6c1.5,1.1,3.1,1.8,4.9,2.1c1.7,0.2,3.3,0,4.9-0.6
		c1.3-0.5,2.4-1.1,3.4-2C28.5,25.8,28.6,25.8,28.6,25.7z"/>
</g>
</svg>
