<?xml version="1.0" encoding="utf-8"?>
<!-- Generator: Adobe Illustrator 24.1.2, SVG Export Plug-In . SVG Version: 6.00 Build 0)  -->
<svg version="1.1" id="Capa_1" xmlns="http://www.w3.org/2000/svg" xmlns:xlink="http://www.w3.org/1999/xlink" x="0px" y="0px"
	 width="234.6px" height="112.2px" viewBox="0 0 234.6 112.2" style="enable-background:new 0 0 234.6 112.2;" xml:space="preserve"
	>
<style type="text/css">
	.st0{fill:#190135;}
	.st1{fill:#E09F0D;}
	.st2{font-family:'Raleway-Regular';}
	.st3{font-size:27.7682px;}
	.st4{font-family:'Raleway-Black';}
	.st5{fill:url(#SVGID_1_);}
	.st6{fill:url(#SVGID_2_);}
	.st7{opacity:0.3;}
	.st8{opacity:0.6;enable-background:new    ;}
	.st9{fill:#E4E4E4;}
	.st10{opacity:0.35;enable-background:new    ;}
</style>
<circle class="st0" cx="55.8" cy="56.2" r="52.8"/>
<g id="BACKGROUND">
</g>
<g>
	<text transform="matrix(1 0 0 1 112.5634 65.5309)" class="st1 st2 st3">DINERO</text>
	<text transform="matrix(1 0 0 1 112.5634 89.5309)" class="st0 st4 st3">RAPIDO</text>
</g>
<g>
	<g>
		
			<linearGradient id="SVGID_1_" gradientUnits="userSpaceOnUse" x1="22.2316" y1="84.2846" x2="81.8626" y2="14.6869" gradientTransform="matrix(1 0 0 -1 0 105.0812)">
			<stop  offset="0" style="stop-color:#E05600"/>
			<stop  offset="0.9667" style="stop-color:#FFFF0F"/>
		</linearGradient>
		<path class="st5" d="M88.9,76.8c-3.3,13.6-15.6,23.7-30.2,23.7c-17.2,0-31.2-14.3-31.2-31.5V27c0-2.6,2-4.7,4.5-4.8
			c2.7-0.1,4.9,2.1,4.9,4.7V47c0.6-0.5,1.1-1.1,1.7-1.6v-26c0-2.6,2-4.7,4.5-4.8c2.7-0.1,4.9,2,4.9,4.7V40c0.6-0.2,1.1-0.4,1.7-0.6
			V11.9c0-2.6,2-4.7,4.5-4.8c2.7-0.1,4.9,2.1,4.9,4.7v26.4c13.8,0.2,25.5,9.5,29.3,22.2c0.2,0.6,0.3,1.1,0.3,1.7
			c0,2.5-1.7,4.9-4.2,5.6c-3,0.9-6.1-0.7-7.1-3.6c-1.5-3.9-3.4-6.7-5.5-8.6c-1-0.9-1.3-2.3-0.7-3.5l2.7-6c0.3-0.6-0.1-1.2-0.7-1.3
			l-4.1-0.4c-0.4,0-0.7,0.5-0.4,0.8l0.3,0.3c0.7,0.6,0.3,1.8-0.7,1.8c-2.6,0.1-6.4,0.2-6.7-0.4c-0.3-0.5,0.9-1.3,2-2
			c0.3-0.2,0.3-0.6,0-0.7c0,0-0.1,0-0.2,0h-3.9c-0.5,0-0.8,0.4-0.7,0.9l1.5,5.8c0.2,0.7,0.8,1.1,1.5,1.1s1.3,0,2,0.1
			c0.4,0.1,0.7,0.1,1.2,0.3c-0.2,0-0.4,0-0.6,0c-0.2,0-0.4,0-0.5,0c-0.9,0.1-1.9,0.3-3,0.7c-0.6,0.2-1.1,0.5-1.7,0.9
			c-4.6,2.7-9.3,9.4-10.3,22.7c-0.1,2.1,0.9,4,2.7,5.1c4,2.2,10.6,2.6,12.8,2.6c1.1,0,3.2-0.1,5.5-0.4l0,0c1.1-0.2,2.3-0.4,3.5-0.7
			c0.9-0.2,1.8-0.5,2.6-0.9h0.1c0.1,0,0.2-0.1,0.3-0.1l0,0c0.3-0.1,0.5-0.2,0.7-0.4c1.8-1,2.8-3,2.7-5l0,0c-0.1-1.6,1.1-3,2.7-3.1
			l3.2-0.3C87.8,72.9,89.4,74.8,88.9,76.8z"/>
		
			<linearGradient id="SVGID_2_" gradientUnits="userSpaceOnUse" x1="22.589" y1="84.5907" x2="82.2197" y2="14.9933" gradientTransform="matrix(1 0 0 -1 0 105.0812)">
			<stop  offset="0" style="stop-color:#E05600"/>
			<stop  offset="0.9667" style="stop-color:#FFFF0F"/>
		</linearGradient>
		<path class="st6" d="M70.1,69.8c-0.5-0.6-1.2-1.1-2-1.4c-0.3-0.1-0.7-0.3-1.2-0.4c-0.4-0.1-0.8-0.2-1.2-0.3v-3.9
			c0.1,0,0.3,0,0.4,0.1c1,0.2,2,0.5,3,1.1l1.1-2.8c-0.7-0.5-1.6-0.8-2.5-1c-0.6-0.2-1.3-0.3-2-0.3v-2.6h-2.8V61
			c-0.7,0.1-1.3,0.3-1.9,0.5c-1,0.4-1.8,1-2.3,1.8C58.2,64,58,64.9,58,65.8c0,1.1,0.3,1.9,0.8,2.5s1.2,1.1,2,1.4
			c0.6,0.2,1.3,0.4,2.1,0.6v3.9c-0.5-0.1-1-0.2-1.5-0.4c-0.9-0.3-1.7-0.7-2.4-1.2l-1.2,2.8c0.7,0.5,1.6,1,2.8,1.3
			c0.8,0.2,1.6,0.4,2.4,0.4v2.6h2.8v-2.6c0.8-0.1,1.5-0.3,2.2-0.6c0.2-0.1,0.4-0.2,0.6-0.3c0.7-0.4,1.2-0.9,1.6-1.5
			c0.5-0.7,0.8-1.6,0.8-2.5C70.9,71.2,70.6,70.4,70.1,69.8z M62.9,66.9c-0.1-0.1-0.3-0.1-0.4-0.2c-0.6-0.3-0.8-0.7-0.8-1.2
			s0.2-1,0.7-1.3c0.1-0.1,0.3-0.2,0.5-0.2V66.9z M66.5,73.8c-0.2,0.1-0.5,0.2-0.8,0.3V71c0.5,0.1,0.8,0.3,1.1,0.6
			c0.3,0.2,0.4,0.6,0.4,0.9C67.3,73.1,67,73.5,66.5,73.8z"/>
	</g>
	<g class="st7">
		<path class="st8" d="M62.7,83.1c-4.9-0.8-8.3-5.3-7.8-10.2c1.4-13.8,7.6-19.7,10.2-20.7c-0.2,0-0.4,0-0.6,0
			c-1.1,0-2.3,0.2-3.5,0.7c-0.6,0.2-1.1,0.5-1.7,0.9c-4.7,2.8-9.4,9.5-10.4,22.8c-0.1,2.1,0.9,4,2.7,5.1c4,2.2,10.6,2.6,12.8,2.6
			c1.6,0,5.5-0.2,9-1.1C70.2,83.8,66.2,83.7,62.7,83.1z"/>
		<path class="st8" d="M60.5,47.3c-0.7-1.7,1-2.9,3.1-3.1c0,0-0.1,0-0.2,0h-3.9c-0.5,0-0.8,0.4-0.7,0.9l1.5,5.8
			c0.2,0.7,0.8,1.1,1.5,1.1c1.1,0,1.8-0.1,3.2,0.3C60.4,50.7,61.2,49,60.5,47.3z"/>
	</g>
	<path class="st9" d="M61.6,45.6"/>
	<path class="st10" d="M70,83.8c-10.2,2.1-23.6-1-23.8-5.3c0-15.1,7.6-23.4,12.7-26.6c0,0,0.2-4.1,0-6.9l1.5,5.8
		c0.2,0.7,0.8,1.1,1.5,1.1s1.3,0,2,0.1l0.1,0.3c-0.9,0.1-1.9,0.3-3,0.7c-0.6,0.2-1.1,0.5-1.7,0.9c-4.7,2.7-9.4,9.4-10.4,22.7
		c-0.1,2.1,0.9,4,2.7,5.1c4,2.2,10.6,2.6,12.8,2.6C65.5,84.2,67.6,84.1,70,83.8z"/>
</g>
<g id="DESIGN_BY_FREEPIK">
</g>
</svg>
