<?xml version="1.0" encoding="utf-8"?>
<!-- Generator: Adobe Illustrator 24.1.2, SVG Export Plug-In . SVG Version: 6.00 Build 0)  -->
<svg version="1.1" xmlns="http://www.w3.org/2000/svg" xmlns:xlink="http://www.w3.org/1999/xlink" x="0px" y="0px" width="274px"
	 height="128.5px" viewBox="0 0 274 128.5" enable-background="new 0 0 274 128.5" xml:space="preserve">
<g id="BACKGROUND">
</g>
<g id="OBJECT_1_">
	<path fill="#190135" d="M90.9,114.2c0.6-0.4,1.2-1,1.8-1c2.3,0.1,4.6,0.5,6.9,0.7c0.6,0.1,1.6,0,1.9-0.4c0.9-1.3,1.6-0.9,2.7-0.4
		c1.4,0.6,3.1,0.7,4.6,1c0-0.2,0.1-0.4,0.1-0.6c-0.7-0.1-1.4-0.3-2.1-0.4c0-0.2,0-0.4,0-0.6c6.8,0.4,13.5,0.7,20.9,1.1
		c-1.2-1.3-2-2.3-2.9-3.1c-1.5-1.2-3.2-0.7-5-0.8c-3.8,0-7.5-0.7-11.3-1.1c-5.2-0.6-10.5-1.1-15.7-1.8c-2.9-0.4-5.8-1.4-8.7-2
		c-1.6-0.3-3.3-0.6-5-0.6c-2.1,0-3.6-0.8-5.1-2.5c-1.5-1.7-1-2.4,0.5-3.3c0.3-0.2,0.6-0.3,1.1-0.5c-0.4-0.7-0.8-1.3-1.2-2
		c1.2-0.6,2.3-1.1,3.4-1.6c0-0.1-0.1-0.3-0.1-0.4c-2.6,0.2-5.2,0.5-7.8,0.7c0.8-2.6,0.4-3.1-2.1-3.8c-1.8-0.5-3.5-1.4-5.4-2.1
		c0.8-2.3,0.9-4.3-1.5-5.5c0.8-3.2,0.2-3.9-3.2-4.8c-1.8-0.5-3.5-1.3-5.2-2c-0.3-0.1-0.6-0.3-0.8-0.2c-2.6,0.9-3.8-1.6-5.7-2.3
		c-1-0.3-2-1-3-1c-4.7,0-9.4,0-14,0.3c-4.2,0.2-8.1-0.1-11.6-2.7C17,70,15.9,70.1,15,70.1c-1.1-0.1-1.9-0.2-2.3-1.5
		c-0.4-1.1-1.1-2.4-2-3.1c-1.5-1-1.5-1.7-0.6-3c0.3-0.4,0.5-1.4,0.3-1.5c-2.3-1.5-1-3.6-0.9-5.4c0.2-3.1-0.8-5.3-3.2-7.2
		c2-0.9,4-1.9,6-2.8c1-0.4,1.9-0.9,2.9-1.3c0.9-0.4,1.8-0.6,2.7-0.9c0.3-0.1,0.8,0,1-0.2c2.4-2.9,5.8-2.1,8.8-2.2
		c7.6-0.3,15.2-0.2,22.8-0.1c1.7,0,3-0.7,3.7-2.2c0.6-1.2,1.1-2.6-1.9-2.9c3.9-1.2,7.1-2.2,10.5-3.3c-0.9-0.7-1.9-1.1-2-1.7
		c-0.1-0.7,0.7-1.4,1.2-2.3c-1.4-2.6-1.1-3.1,3.4-6.3c-0.8-2-1.8-3.9-2.4-6c-0.3-1.1,0.3-2,1.8-1.9c2,0.1,4.1-0.3,5.7-1.9
		c-0.4-0.6-0.7-1.1-1.1-1.9c1-0.2,1.9-0.6,2.7-0.6c5.2-0.1,10.3-0.1,15.5-0.2c1.4,0,2.8,0,4.1-0.2c0.8-0.2,1.5-1,2.3-1.4
		c0.9-0.5,1.9-1.3,2.9-1.4c2.7-0.3,5.6-0.6,8.3-0.3c4,0.4,7.9,1.5,11.9,2.1c9.7,1.5,19.3,3,29,4.2c7.5,0.9,15,1.6,22.5,2.2
		c10.8,0.9,21.6,1.6,32.3,2.3c6.7,0.5,13.4,0.8,20.1,1.2c3.2,0.2,5.9,1.3,6.8,4.9c0.1,0.4,0.9,0.7,1.4,0.8c3,0.5,6,1.1,9.1,1.5
		c3.5,0.4,5.9,2.4,7.1,5.7c0.3,0.9,1.2,1.7,2,2.5c1.5,1.6,3.1,3,4.5,4.7c1,1.3,1.1,2.6-0.3,3.8c-1.1,1-1.2,1.8,0.1,3
		c1.4,1.2,2.2,3,3.2,4.6c0.6,1,0.4,1.7-0.5,2.7c-2.1,2.1-1.7,6.1,0.6,7.9c1.4,1.1,2.9,2.1,4,3.4c1.2,1.6,2,3.6,2.9,5.5
		c0.1,0.2-0.4,0.8-0.7,1.2c-1.8,2.1-1.7,4.2,0,6.4c1.2,1.6,3.4,2.5,3.4,5.1c0,0.5,1.1,1,1.8,1.4c2.4,1.2,4.1,3.1,5.1,5.5
		c0.5,1.3,1.5,2.8-0.8,3.6c-0.1,0-0.2,0.2-0.3,0.3c-0.7,2.5-1.8,5-1.9,7.5c-0.1,2.3-1.2,3.1-2.8,3.8c-1.5,0.6-3.1,1.1-4.7,1.7
		c-4.6,1.6-9,3.5-14,3.4c-0.4,0-1.3,0.8-1.2,1.1c0.4,2.3-0.5,3.5-2.9,3.5c-0.3,0-0.6,0.4-1.1,0.7c1,0.8,1.9,1.5,2.8,2.2
		c1.1,0.9,1.5,2.1,0.3,3.2c-1.4,1.2-1.5,2.2,0,3.2c-4.5,3-9.5,3.9-14.8,3.7c-10-0.4-20-0.9-30-1c-11.2-0.1-22.2-2.2-33.3-3.5
		c-10.4-1.2-20.9-2.1-31.3-3.1c-5.8-0.5-11.6-0.9-17.4-1.5c-8.2-0.8-16.3-1.7-24.5-2.6c-0.7-0.1-1.3-0.3-2-0.4
		C91,114.6,90.9,114.4,90.9,114.2z"/>
	<g>
		<text transform="matrix(1 0 0 1 144.5421 69.3607)"><tspan x="0" y="0" fill="#E09F0D" font-family="'Raleway-Regular'" font-size="27.7682px">DINERO</tspan><tspan x="0" y="24" fill="#FFFFFF" font-family="'Raleway-Black'" font-size="27.7682px">RAPIDO</tspan></text>
	</g>
	<g>
		<g>
			<linearGradient id="SVGID_1_" gradientUnits="userSpaceOnUse" x1="68.2764" y1="22.5698" x2="127.9074" y2="92.1675">
				<stop  offset="0" style="stop-color:#E05600"/>
				<stop  offset="0.9667" style="stop-color:#FFFF0F"/>
			</linearGradient>
			<path fill="url(#SVGID_1_)" d="M134.9,78.6c-3.3,13.6-15.6,23.7-30.2,23.7c-17.2,0-31.2-14.3-31.2-31.5v-42c0-2.6,2-4.7,4.5-4.8
				c2.7-0.1,4.9,2.1,4.9,4.7v20.1c0.6-0.5,1.1-1.1,1.7-1.6v-26c0-2.6,2-4.7,4.5-4.8c2.7-0.1,4.9,2,4.9,4.7v20.7
				c0.6-0.2,1.1-0.4,1.7-0.6V13.7c0-2.6,2-4.7,4.5-4.8c2.7-0.1,4.9,2.1,4.9,4.7V40c13.8,0.2,25.5,9.5,29.3,22.2
				c0.2,0.6,0.3,1.1,0.3,1.7c0,2.5-1.7,4.9-4.2,5.6c-3,0.9-6.1-0.7-7.1-3.6c-1.5-3.9-3.4-6.7-5.5-8.6c-1-0.9-1.3-2.3-0.7-3.5l2.7-6
				c0.3-0.6-0.1-1.2-0.7-1.3l-4.1-0.4c-0.4,0-0.7,0.5-0.4,0.8l0.3,0.3c0.7,0.6,0.3,1.8-0.7,1.8c-2.6,0.1-6.4,0.2-6.7-0.4
				c-0.3-0.5,0.9-1.3,2-2c0.3-0.2,0.3-0.6,0-0.7c0,0-0.1,0-0.2,0h-3.9c-0.5,0-0.8,0.4-0.7,0.9l1.5,5.8c0.2,0.7,0.8,1.1,1.5,1.1
				c0.7,0,1.3,0,2,0.1c0.4,0.1,0.7,0.1,1.2,0.3c-0.2,0-0.4,0-0.6,0c-0.2,0-0.4,0-0.5,0c-0.9,0.1-1.9,0.3-3,0.7
				c-0.6,0.2-1.1,0.5-1.7,0.9c-4.6,2.8-9.3,9.5-10.3,22.8c-0.1,2.1,0.9,4,2.7,5.1c4,2.2,10.6,2.6,12.8,2.6c1.1,0,3.2-0.1,5.5-0.4h0
				c1.1-0.2,2.3-0.4,3.5-0.7c0.9-0.2,1.8-0.5,2.6-0.9c0,0,0.1,0,0.1,0c0.1,0,0.2-0.1,0.3-0.1c0,0,0,0,0,0c0.3-0.1,0.5-0.2,0.7-0.4
				c1.8-1,2.8-3,2.7-5c0,0,0,0,0,0c-0.1-1.6,1.1-3,2.7-3.1l3.2-0.3C133.8,74.7,135.4,76.6,134.9,78.6z"/>
			<linearGradient id="SVGID_2_" gradientUnits="userSpaceOnUse" x1="68.5683" y1="22.32" x2="128.1989" y2="91.9173">
				<stop  offset="0" style="stop-color:#E05600"/>
				<stop  offset="0.9667" style="stop-color:#FFFF0F"/>
			</linearGradient>
			<path fill="url(#SVGID_2_)" d="M116,71.6c-0.5-0.6-1.2-1.1-2-1.4c-0.3-0.1-0.7-0.3-1.2-0.4c-0.4-0.1-0.8-0.2-1.2-0.3v-3.9
				c0.1,0,0.3,0,0.4,0.1c1,0.2,2,0.5,3,1.1l1.1-2.8c-0.7-0.5-1.6-0.8-2.5-1c-0.6-0.2-1.3-0.3-2-0.3v-2.6h-2.8v2.7
				c-0.7,0.1-1.3,0.3-1.9,0.5c-1,0.4-1.8,1-2.3,1.8c-0.5,0.7-0.7,1.6-0.7,2.5c0,1.1,0.3,1.9,0.8,2.5c0.5,0.6,1.2,1.1,2,1.4
				c0.6,0.2,1.3,0.4,2.1,0.6V76c-0.5-0.1-1-0.2-1.5-0.4c-0.9-0.3-1.7-0.7-2.4-1.2l-1.2,2.8c0.7,0.5,1.6,1,2.8,1.3
				c0.8,0.2,1.6,0.4,2.4,0.4v2.6h2.8v-2.6c0.8-0.1,1.5-0.3,2.2-0.6c0.2-0.1,0.4-0.2,0.6-0.3c0.7-0.4,1.2-0.9,1.6-1.5
				c0.5-0.7,0.8-1.6,0.8-2.5C116.9,73.1,116.6,72.2,116,71.6z M108.9,68.8c-0.1-0.1-0.3-0.1-0.4-0.2c-0.6-0.3-0.8-0.7-0.8-1.2
				c0-0.5,0.2-1,0.7-1.3c0.1-0.1,0.3-0.2,0.5-0.2V68.8z M112.5,75.6c-0.2,0.1-0.5,0.2-0.8,0.3v-3.1c0.5,0.1,0.8,0.3,1.1,0.6
				c0.3,0.2,0.4,0.6,0.4,0.9C113.2,74.9,113,75.3,112.5,75.6z"/>
		</g>
		<g opacity="0.3">
			<path opacity="0.6" d="M108.6,84.9c-4.9-0.8-8.3-5.3-7.8-10.2c1.4-13.8,7.6-19.7,10.2-20.7c-0.2,0-0.4,0-0.6,0
				c-1.1,0-2.3,0.2-3.5,0.7c-0.6,0.2-1.1,0.5-1.7,0.9c-4.6,2.8-9.3,9.5-10.3,22.8c-0.1,2.1,0.9,4,2.7,5.1c4,2.2,10.6,2.6,12.8,2.6
				c1.6,0,5.5-0.2,9-1.1C116.1,85.7,112.1,85.5,108.6,84.9z"/>
			<path opacity="0.6" d="M106.5,49.1c-0.7-1.7,1-2.9,3.1-3.1c0,0-0.1,0-0.2,0h-3.9c-0.5,0-0.8,0.4-0.7,0.9l1.5,5.8
				c0.2,0.7,0.8,1.1,1.5,1.1c1.1,0,1.8-0.1,3.2,0.3C106.4,52.5,107.2,50.8,106.5,49.1z"/>
		</g>
		<path fill="#E4E4E4" d="M107.5,47.4"/>
		<path opacity="0.35" d="M115.9,85.6c-10.2,2.1-23.6-1-23.8-5.3c0-15.1,7.6-23.4,12.7-26.6c0,0,0.2-4.1,0-6.9l1.5,5.8
			c0.2,0.7,0.8,1.1,1.5,1.1c0.7,0,1.3,0,2,0.1l0.1,0.3c-0.9,0.1-1.9,0.3-3,0.7c-0.6,0.2-1.1,0.5-1.7,0.9c-4.6,2.8-9.3,9.5-10.3,22.8
			c-0.1,2.1,0.9,4,2.7,5.1c4,2.2,10.6,2.6,12.8,2.6C111.4,86,113.6,86,115.9,85.6z"/>
	</g>
</g>
<g id="DESIGN_BY_FREEPIK">
</g>
</svg>
