<?xml version="1.0" encoding="utf-8"?>
<!-- Generator: Adobe Illustrator 24.1.2, SVG Export Plug-In . SVG Version: 6.00 Build 0)  -->
<svg version="1.1" id="Layer_1" xmlns="http://www.w3.org/2000/svg" xmlns:xlink="http://www.w3.org/1999/xlink" x="0px" y="0px"
	 width="46.9px" height="45.2px" viewBox="0 0 46.9 45.2" style="enable-background:new 0 0 46.9 45.2;" xml:space="preserve">
<g>
	<path d="M29.6,30.6c0,4,0,8,0,12.1c-1.1,0-2.3,0-3.4,0c0-4.2,0-8.5,0-12.8c-0.2,0-0.4,0-0.6,0c-7.2,0-14.5,0-21.7,0
		c-0.1,0-0.3,0-0.4,0c-0.4,0-0.7-0.3-0.7-0.7c0-0.4,0.3-0.6,0.7-0.7c0.1,0,0.3,0,0.4,0c7.2,0,14.4,0,21.5,0c0.1,0,0.2,0,0.3,0
		c0.1,0,0.3-0.1,0.3-0.2c0-0.1-0.1-0.3-0.1-0.3c-0.3-0.2-0.5-0.5-0.5-0.9c0-0.9,0-1.8,0-2.9c-0.5,0.8-0.9,1.5-1.3,2.2
		c-0.3,0.5-0.6,0.9-0.8,1.4c-0.2,0.4-0.4,0.3-0.7,0.2c-0.5-0.2-1-0.5-1.5-0.8c0.4-0.6,0.8-1.3,1.2-1.9c1-1.7,2.1-3.4,3.1-5.1
		c0-0.1,0.1-0.2,0.1-0.3c0.1-0.4,0.4-0.7,0.9-0.7c0.3,0,0.5-0.1,0.8-0.2c1.1-0.5,2.3-0.8,3.5-0.6c0.5,0.1,1,0.3,1.5,0.5
		c0.5,0.2,1,0.3,1.5,0.4c0.1,0,0.3,0.2,0.3,0.3c0.3,1.8,0.6,3.7,0.9,5.5c0.1,0.9,0.3,1.8,0.5,2.7c0,0.1,0,0.2,0,0.5
		c-0.6,0-1.1,0.1-1.7,0.1c0,0,0,0,0,0.1c1,0,2,0,3.1,0c0.1,0,0.3,0,0.4,0c0.5,0,0.8,0.3,0.8,0.7c0,0.3-0.4,0.7-0.8,0.7
		c-1.1,0-2.1,0-3.2,0c-0.2,0-0.3,0-0.6,0c0,4.2,0,8.5,0,12.7c-1.1,0-2.2,0-3.4,0c0-0.2,0-0.4,0-0.5c0-3.7,0-7.4,0-11.1
		C30,30.8,30,30.5,29.6,30.6z"/>
	<path d="M8.7,23.6c-0.5,0.8-1,1.5-1.4,2.2c-0.5,0.8-1,1.6-1.5,2.5c-0.2,0.3-0.7,0.3-1.1,0.1c-0.2-0.1-0.3-0.2-0.4-0.3
		C4,27.6,3.9,27.3,4.2,27c1.4-2.2,2.8-4.4,4.2-6.7c0-0.1,0.1-0.2,0.1-0.2c0.2-0.6,0.6-0.9,1.3-0.8c0.7,0.1,1.3-0.2,1.9-0.6
		c0,0,0.1,0,0.1,0c0.7,0,1.5,0,2.2,0c0.4,0,0.7,0.3,1.1,0.4c0.3,0.1,0.6,0.1,0.9,0.2c0.4,0.1,0.8,0.1,1.2,0.2c0.1,0,0.2,0.2,0.3,0.3
		c0.3,0.6,0.6,1.2,0.9,1.8c0.8-1.2,1.5-2.3,2.3-3.4c0.3-0.5,0.3-0.6,0.9-0.3c0.3,0.2,0.7,0.4,1,0.5c0.3,0.1,0.3,0.3,0.2,0.6
		c-0.9,1.5-1.7,2.9-2.6,4.4c-0.3,0.6-0.7,1.2-1,1.8c-0.3,0.5-0.9,0.6-1.3,0.2c-0.1-0.1-0.3-0.3-0.5-0.5c0,0.8,0,1.5,0,2.2
		c0,0.7-0.3,1-1,1c-2.2,0-4.4,0-6.5,0c-0.7,0-1-0.3-1-1C8.7,25.9,8.7,24.8,8.7,23.6z"/>
	<path d="M14.1,18.5c-0.7,0-1.5,0.1-2.2,0c-0.4-0.1-0.7-0.4-1-0.7c-1.1-1.2-0.9-3.2,0.5-4.2c1.4-0.9,3.4-0.3,3.9,1.5
		c0.3,1.2,0,2.3-1.1,3C14.2,18.2,14.2,18.3,14.1,18.5z"/>
	<path d="M29.8,18.3c-0.6,0.2-1.1,0-1.6-0.5c-0.5-0.5-0.8-1-0.9-1.7c-0.2-1.3,0.6-2.6,1.7-3c1.2-0.4,2.4,0.1,2.9,0.8
		c0.8,1,0.8,2.3,0.2,3.3C31.5,18.1,30.8,18.5,29.8,18.3z"/>
	<path d="M22.5,12.7c0.3,0.2,0.6,0.3,0.9,0.5c0.8,0.4,1.6,0.9,2.4,1.3c0.4,0.2,0.5,0.4,0.3,0.8c-0.6,1.2-1.2,2.4-1.8,3.5
		c-0.1,0.2-0.2,0.3-0.5,0.2c-1.1-0.6-2.3-1.3-3.4-1.9c-0.1,0-0.1-0.3-0.1-0.4c0.5-1,1-1.9,1.6-2.8c0.1-0.3,0.3-0.5,0.5-0.8
		C22.3,12.9,22.4,12.8,22.5,12.7z"/>
</g>
<g>
	<path d="M48.5,23.6c0-0.3,0.1-0.5,0.1-0.8c0.3-1.4,1.2-2.5,2.4-3.2c0.5-0.3,1.1-0.5,1.7-0.7c0.1,0,0.2-0.1,0.2-0.2
		c0.5-1.9,1.2-3.6,2.3-5.2c2.4-3.5,5.5-5.8,9.6-7c1.9-0.5,3.8-0.7,5.7-0.6c4.3,0.3,8,1.9,11.1,5c2.2,2.2,3.7,4.8,4.4,7.8
		c0,0.2,0.2,0.2,0.3,0.2c1.2,0.3,2.3,0.9,3.1,1.9c0.5,0.7,0.8,1.5,0.9,2.3c0,0.1,0,0.2,0,0.2c0,0.3,0,0.6,0,0.9
		c-0.1,0.4-0.1,0.8-0.3,1.2c-0.5,1.4-1.4,2.4-2.8,2.9c-0.6,0.3-1.2,0.4-1.8,0.6c-0.1,0-0.2,0.1-0.2,0.2c-1.9,4.6-5.2,7.9-9.9,9.7
		c-0.6,0.2-0.9,0.5-1.1,1.1c-0.2,0.6-0.7,0.8-1.3,0.9c-0.5,0-1.1,0-1.6-0.1c-0.5-0.1-0.8-0.4-0.9-0.8c-0.1-0.4-0.1-0.8,0-1.3
		c0.2-0.4,0.4-0.6,0.9-0.8c0.7-0.2,1.4-0.3,2.1-0.2c0.1,0,0.2,0.1,0.3,0.1c0.3,0,0.5,0.1,0.8,0c2.5-0.8,4.6-2.2,6.3-4.1
		c1.7-1.8,2.9-3.8,3.6-6.2c0.5-1.7,0.7-3.5,0.7-5.4c-0.1-2.5-0.8-4.9-2.1-7.1c-1.6-2.7-3.8-4.8-6.7-6.2c-1.5-0.8-3.2-1.2-4.9-1.5
		c-1.4-0.2-2.7-0.2-4.1,0c-2.5,0.3-4.7,1.2-6.8,2.6c-2.1,1.5-3.8,3.3-5,5.6c-1,1.9-1.6,3.9-1.7,6.1c-0.2,2.4,0.2,4.8,1.1,7
		c0,0,0,0.1,0,0.1c-0.8,0.3-1.6,0.3-2.4,0.1c-1.2-0.3-2.3-0.9-3.1-1.9c-0.5-0.7-0.8-1.5-0.9-2.4c0-0.1,0-0.2,0-0.3
		C48.5,24.2,48.5,23.9,48.5,23.6z"/>
	<path d="M69.6,36.1c-1.3,0-2.6-0.2-3.8-0.6c-0.6-0.2-1.2-0.5-1.8-0.8c-1.4-0.7-2.6-1.5-3.8-2.5c-0.8-0.8-1.5-1.7-2.1-2.7
		c-1.2-2.2-1.9-4.5-1.7-7c0.3-4.7,2.4-8.2,6.4-10.7c1.6-1,3.3-1.6,5.1-1.7c4.8-0.4,8.7,1.2,11.8,4.9c1.5,1.9,2.4,4,2.7,6.4
		c0.5,4.3-0.8,8-3.9,11c-2,1.9-4.4,3.1-7.1,3.5C70.8,36.1,70.2,36.1,69.6,36.1z M69.5,12c-6.1,0-10.9,4.8-11.1,10.7
		c-0.2,6.4,4.9,11.4,11.1,11.5c6.1,0,11.3-5,11.1-11.5C80.4,16.8,75.6,12,69.5,12z"/>
	<path d="M76.6,25.7c0,0.9-0.2,1.6-0.5,2.4c-0.9,2.2-2.5,3.5-4.9,3.9c-1.5,0.3-2.9,0.2-4.4-0.2c-2.2-0.7-3.6-2.2-4.2-4.4
		c-0.1-0.5-0.2-1.1-0.3-1.6c0,0,0.1,0,0.1,0c0.3,0.2,0.5,0.4,0.8,0.6c1.5,1.1,3.1,1.8,4.9,2.1c1.7,0.2,3.3,0,4.9-0.6
		c1.3-0.5,2.4-1.1,3.4-2C76.5,25.8,76.5,25.8,76.6,25.7z"/>
</g>
</svg>
